# Blender 4.1.1
# www.blender.org
mtllib Dodecahedron_MIP_36h12.mtl
o AR-Markers
v 0.044846 0.159409 -0.176178
v 0.152436 0.160220 -0.097742
v 0.080789 0.040559 -0.224252
v 0.188380 0.041369 -0.145817
v -0.154332 0.158446 -0.097659
v -0.046544 0.159315 -0.175821
v -0.188553 0.039267 -0.146174
v -0.080764 0.040136 -0.224337
v -0.141331 0.158046 0.116223
v -0.182234 0.158561 -0.010486
v -0.197580 0.038664 0.133895
v -0.238484 0.039179 0.007186
v 0.066210 0.158853 0.169832
v -0.066939 0.158911 0.169492
v 0.066006 0.039671 0.229195
v -0.067142 0.039729 0.228855
v 0.181228 0.159673 -0.011023
v 0.139763 0.159957 0.115503
v 0.238185 0.040822 0.007909
v 0.196719 0.041104 0.134435
v 0.013806 0.222629 0.093311
v 0.091925 0.223159 -0.014511
v -0.094015 0.222242 0.015190
v -0.015895 0.222773 -0.092632
v 0.188837 -0.039729 0.145682
v 0.081318 -0.039671 0.224219
v 0.153778 -0.158912 0.097776
v 0.046260 -0.158853 0.176314
v -0.080123 -0.041110 0.224391
v -0.188043 -0.040815 0.146406
v -0.045182 -0.159963 0.175588
v -0.153103 -0.159668 0.097604
v -0.238105 -0.041414 -0.007188
v -0.197208 -0.040515 -0.133897
v -0.180739 -0.160263 0.010484
v -0.139842 -0.159364 -0.116224
v -0.091954 -0.223115 -0.015012
v 0.015717 -0.222490 -0.093339
v -0.013627 -0.222911 0.092660
v 0.094043 -0.222287 0.014334
v 0.197196 -0.039135 -0.134323
v 0.238542 -0.038708 -0.007758
v 0.141272 -0.158518 -0.115651
v 0.182618 -0.158090 0.010914
v -0.066522 -0.040136 -0.228965
v 0.066623 -0.039267 -0.229086
v -0.065691 -0.159315 -0.169600
v 0.067455 -0.158446 -0.169722
vn 0.5236 0.4508 -0.7229
vn -0.5278 0.4458 -0.7229
vn -0.8527 0.4428 0.2771
vn -0.0021 0.4458 0.8951
vn 0.8485 0.4508 0.2771
vn -0.0047 1.0000 0.0015
vn 0.5278 -0.4458 0.7229
vn -0.5236 -0.4508 0.7229
vn -0.8485 -0.4508 -0.2771
vn 0.0047 -1.0000 -0.0015
vn 0.8527 -0.4428 -0.2771
vn 0.0021 -0.4458 -0.8951
vt 0.784007 0.311639
vt 0.703572 0.311431
vt 0.703680 0.155771
vt 0.784114 0.155979
vt 0.875573 0.552550
vt 0.851487 0.406002
vt 0.927213 0.359391
vt 0.951299 0.505939
vt 0.785614 0.797782
vt 0.850366 0.707098
vt 0.897226 0.832409
vt 0.832474 0.923093
vt 0.637078 0.705632
vt 0.702111 0.796960
vt 0.654919 0.922815
vt 0.589886 0.831488
vt 0.636570 0.405017
vt 0.612244 0.552376
vt 0.536099 0.505298
vt 0.560425 0.357940
vt 0.704813 0.629787
vt 0.705281 0.478724
vt 0.783340 0.479629
vt 0.782872 0.630692
vt 0.479393 0.505546
vt 0.455837 0.651160
vt 0.380593 0.605574
vt 0.404150 0.459959
vt 0.311535 0.856660
vt 0.231673 0.856102
vt 0.231961 0.701551
vt 0.311823 0.702109
vt 0.088333 0.654200
vt 0.063869 0.507448
vt 0.139701 0.460104
vt 0.164165 0.606856
vt 0.230740 0.535456
vt 0.230349 0.379155
vt 0.311115 0.378399
vt 0.311506 0.534700
vt 0.358288 0.089767
vt 0.423405 0.181074
vt 0.376223 0.307090
vt 0.311107 0.215783
vt 0.116657 0.180929
vt 0.181967 0.090629
vt 0.228628 0.217020
vt 0.163317 0.307320
s 0
usemtl マテリアル
f 1/1/1 2/2/1 4/3/1 3/4/1
f 5/5/2 6/6/2 8/7/2 7/8/2
f 9/9/3 10/10/3 12/11/3 11/12/3
f 13/13/4 14/14/4 16/15/4 15/16/4
f 17/17/5 18/18/5 20/19/5 19/20/5
f 21/21/6 22/22/6 24/23/6 23/24/6
f 25/25/7 26/26/7 28/27/7 27/28/7
f 29/29/8 30/30/8 32/31/8 31/32/8
f 33/33/9 34/34/9 36/35/9 35/36/9
f 37/37/10 38/38/10 40/39/10 39/40/10
f 41/41/11 42/42/11 44/43/11 43/44/11
f 45/45/12 46/46/12 48/47/12 47/48/12
o Dodecahedron
v -0.256806 0.050445 -0.083286
v -0.158806 0.050445 0.218327
v -0.256322 -0.052851 0.083284
v -0.159589 0.217581 -0.051190
v -0.099022 0.217581 0.135218
v -0.158806 0.050445 0.218327
v 0.096976 0.218500 0.135218
v 0.000243 -0.051932 0.269692
v 0.158325 0.051932 0.218328
v -0.099022 0.217581 0.135218
v 0.256806 -0.050445 0.083286
v 0.096976 0.218500 0.135218
v 0.158325 0.051932 0.218328
v 0.256322 0.052851 -0.083284
v 0.157541 0.219068 -0.051188
v -0.256806 0.050445 -0.083286
v -0.001024 0.218500 -0.166395
v -0.158325 -0.051932 -0.218328
v -0.000243 0.051932 -0.269692
v -0.159589 0.217581 -0.051190
v 0.158806 -0.050445 -0.218327
v -0.001024 0.218500 -0.166395
v -0.000243 0.051932 -0.269692
v 0.256322 0.052851 -0.083284
v 0.157541 0.219068 -0.051188
v -0.001024 0.218500 -0.166395
v 0.096976 0.218500 0.135218
v 0.157541 0.219068 -0.051188
v -0.159589 0.217581 -0.051190
v -0.099022 0.217581 0.135218
v 0.158806 -0.050445 -0.218327
v 0.256806 -0.050445 0.083286
v 0.256322 0.052851 -0.083284
v 0.099022 -0.217581 -0.135218
v 0.159589 -0.217581 0.051190
v -0.096976 -0.218500 -0.135218
v 0.158806 -0.050445 -0.218327
v -0.158325 -0.051932 -0.218328
v -0.000243 0.051932 -0.269692
v 0.099022 -0.217581 -0.135218
v -0.096976 -0.218500 -0.135218
v -0.256806 0.050445 -0.083286
v -0.158325 -0.051932 -0.218328
v -0.157541 -0.219068 0.051188
v -0.256322 -0.052851 0.083284
v 0.001024 -0.218500 0.166395
v -0.158806 0.050445 0.218327
v 0.000243 -0.051932 0.269692
v -0.157541 -0.219068 0.051188
v -0.256322 -0.052851 0.083284
v 0.001024 -0.218500 0.166395
v 0.256806 -0.050445 0.083286
v 0.000243 -0.051932 0.269692
v 0.158325 0.051932 0.218328
v 0.159589 -0.217581 0.051190
v -0.096976 -0.218500 -0.135218
v 0.001024 -0.218500 0.166395
v -0.157541 -0.219068 0.051188
v 0.099022 -0.217581 -0.135218
v 0.159589 -0.217581 0.051190
vn -0.8527 0.4428 0.2771
vn -0.0021 0.4458 0.8951
vn 0.8485 0.4508 0.2771
vn -0.5278 0.4458 -0.7229
vn 0.5236 0.4508 -0.7229
vn -0.0047 1.0000 0.0015
vn 0.8527 -0.4428 -0.2771
vn 0.0021 -0.4458 -0.8951
vn -0.8485 -0.4508 -0.2771
vn -0.5236 -0.4508 0.7229
vn 0.5278 -0.4458 0.7229
vn 0.0047 -1.0000 -0.0015
vt 0.923062 0.199481
vt 0.919433 0.177290
vt 0.929099 0.163675
vt 0.938849 0.177280
vt 0.935102 0.199521
vt 0.910854 0.166216
vt 0.920626 0.180008
vt 0.916872 0.201910
vt 0.904851 0.202039
vt 0.901141 0.179941
vt 0.861523 0.130606
vt 0.849537 0.130572
vt 0.845742 0.108309
vt 0.855530 0.094598
vt 0.865184 0.108407
vt 0.955182 0.130858
vt 0.951490 0.152958
vt 0.939369 0.152996
vt 0.935726 0.130811
vt 0.945483 0.117197
vt 0.940170 0.107691
vt 0.936472 0.129701
vt 0.924424 0.129566
vt 0.920771 0.107484
vt 0.930468 0.093982
vt 0.922121 0.152458
vt 0.925748 0.130372
vt 0.937865 0.130229
vt 0.941591 0.152390
vt 0.931867 0.166149
vt 0.512927 0.074954
vt 0.516607 0.052449
vt 0.528681 0.052604
vt 0.532402 0.074825
vt 0.522612 0.088379
vt 0.493626 0.151765
vt 0.483939 0.138010
vt 0.487515 0.115932
vt 0.499613 0.115876
vt 0.503364 0.138038
vt 0.511497 0.153202
vt 0.515301 0.175502
vt 0.505490 0.189230
vt 0.495858 0.175656
vt 0.499477 0.153499
vt 0.512870 0.213458
vt 0.524988 0.213311
vt 0.528594 0.235249
vt 0.518963 0.248895
vt 0.509226 0.235583
vt 0.580499 0.103462
vt 0.584276 0.125286
vt 0.574498 0.139032
vt 0.564740 0.125530
vt 0.568486 0.103386
vt 0.525763 0.104823
vt 0.535514 0.118509
vt 0.531835 0.140588
vt 0.519760 0.140686
vt 0.515948 0.118582
s 0
usemtl マテリアル
f 50/49/13 53/50/13 52/51/13 49/52/13 51/53/13
f 55/54/14 58/55/14 54/56/14 56/57/14 57/58/14
f 60/59/15 61/60/15 59/61/15 62/62/15 63/63/15
f 66/64/16 64/65/16 68/66/16 65/67/16 67/68/16
f 71/69/17 70/70/17 73/71/17 72/72/17 69/73/17
f 75/74/18 76/75/18 74/76/18 77/77/18 78/78/18
f 82/79/19 79/80/19 81/81/19 80/82/19 83/83/19
f 84/84/20 86/85/20 87/86/20 85/87/20 88/88/20
f 89/89/21 92/90/21 93/91/21 90/92/21 91/93/21
f 97/94/22 94/95/22 96/96/22 95/97/22 98/98/22
f 100/99/23 102/100/23 101/101/23 99/102/23 103/103/23
f 104/104/24 107/105/24 108/106/24 105/107/24 106/108/24
